<svg xmlns="http://www.w3.org/2000/svg" viewBox="0 0 1024 1024" fill="none">
  <defs>
    <!-- background -->
    <linearGradient id="bg" x1="140" y1="120" x2="920" y2="930" gradientUnits="userSpaceOnUse">
      <stop offset="0" stop-color="#111827"/>
      <stop offset="1" stop-color="#0b1224"/>
    </linearGradient>

    <!-- portal ring gradient -->
    <linearGradient id="ring" x1="220" y1="220" x2="820" y2="820" gradientUnits="userSpaceOnUse">
      <stop offset="0" stop-color="#60a5fa"/>
      <stop offset="0.5" stop-color="#3b82f6"/>
      <stop offset="1" stop-color="#60a5fa"/>
    </linearGradient>

    <!-- bright core gradient -->
    <radialGradient id="core" cx="0" cy="0" r="1" gradientUnits="userSpaceOnUse"
      gradientTransform="translate(540 470) rotate(90) scale(240)">
      <stop offset="0" stop-color="#ffffff"/>
      <stop offset="0.35" stop-color="#60a5fa"/>
      <stop offset="0.75" stop-color="#3b82f6"/>
      <stop offset="1" stop-color="#111827"/>
    </radialGradient>

    <!-- soft glow -->
    <filter id="glow" x="-30%" y="-30%" width="160%" height="160%" color-interpolation-filters="sRGB">
      <feGaussianBlur stdDeviation="12" result="blur"/>
      <feColorMatrix in="blur" type="matrix"
        values="1 0 0 0 0
                0 1 0 0 0
                0 0 1 0 0
                0 0 0 0.65 0" result="glow"/>
      <feMerge>
        <feMergeNode in="glow"/>
        <feMergeNode in="SourceGraphic"/>
      </feMerge>
    </filter>

    <!-- crisp glow (for points) -->
    <filter id="spark" x="-40%" y="-40%" width="180%" height="180%" color-interpolation-filters="sRGB">
      <feGaussianBlur stdDeviation="5" result="b"/>
      <feMerge>
        <feMergeNode in="b"/>
        <feMergeNode in="SourceGraphic"/>
      </feMerge>
    </filter>
  </defs>

  <!-- rounded square app icon background -->
  <rect x="64" y="64" width="896" height="896" rx="200" fill="url(#bg)"/>
  <rect x="64" y="64" width="896" height="896" rx="200" stroke="#4b5563" stroke-opacity="0.35" stroke-width="6"/>

  <!-- subtle nebula -->
  <g opacity="0.45">
    <circle cx="320" cy="320" r="220" fill="#3b82f6" opacity="0.12"/>
    <circle cx="720" cy="680" r="240" fill="#60a5fa" opacity="0.10"/>
  </g>

  <!-- portal ring -->
  <g filter="url(#glow)">
    <circle cx="512" cy="512" r="300" stroke="url(#ring)" stroke-width="26"/>
  </g>

  <!-- dashed orbit ring for motion -->
  <circle cx="512" cy="512" r="238" stroke="#60a5fa" stroke-opacity="0.9"
          stroke-width="14" stroke-linecap="round" stroke-dasharray="40 22"/>

  <!-- latent axes (3D cue) -->
  <g stroke="#d1d5db" stroke-opacity="0.30" stroke-linecap="round">
    <line x1="512" y1="305" x2="512" y2="715" stroke-width="10"/>
    <line x1="305" y1="512" x2="715" y2="512" stroke-width="10"/>
    <line x1="360" y1="640" x2="690" y2="390" stroke-width="8" stroke-opacity="0.22"/>
  </g>

  <!-- constellation links -->
  <g stroke="#60a5fa" stroke-opacity="0.55" stroke-width="8" stroke-linecap="round">
    <path d="M362 560 L450 500 L540 545 L640 470"/>
    <path d="M420 650 L512 610 L610 660"/>
  </g>

  <!-- core -->
  <g filter="url(#glow)">
    <circle cx="540" cy="470" r="140" fill="url(#core)"/>
  </g>

  <!-- cluster points -->
  <g filter="url(#spark)">
    <circle cx="362" cy="560" r="18" fill="#60a5fa"/>
    <circle cx="450" cy="500" r="14" fill="#3b82f6"/>
    <circle cx="540" cy="545" r="17" fill="#60a5fa"/>
    <circle cx="640" cy="470" r="14" fill="#3b82f6"/>

    <circle cx="420" cy="650" r="14" fill="#3b82f6"/>
    <circle cx="512" cy="610" r="18" fill="#60a5fa"/>
    <circle cx="610" cy="660" r="13" fill="#3b82f6"/>

    <!-- tiny stars -->
    <circle cx="512" cy="230" r="10" fill="#ffffff" opacity="0.9"/>
    <circle cx="794" cy="512" r="9" fill="#ffffff" opacity="0.85"/>
    <circle cx="230" cy="512" r="9" fill="#ffffff" opacity="0.85"/>
    <circle cx="512" cy="794" r="8" fill="#ffffff" opacity="0.75"/>
  </g>
</svg>
